<svg version="1.1" xmlns="http://www.w3.org/2000/svg" style="display: block;" viewBox="0 0 2048 2048" width="1024" height="1024" preserveAspectRatio="none">
<path transform="translate(0,0)" fill="rgb(17,62,32)" d="M 1589.73 856.577 C 1597.2 879.516 1603.27 912.8 1606.71 936.53 C 1624.16 1049.37 1608.07 1164.86 1560.43 1268.63 C 1505.67 1388.62 1412.28 1486.8 1295.17 1547.47 C 1251.92 1569.96 1208.65 1585.96 1161.54 1597.82 C 1033.18 1628.87 898.078 1615.52 778.266 1559.96 C 635.284 1494.14 524.34 1374.17 469.886 1226.48 C 417.092 1080.91 423.224 920.483 486.976 779.368 C 553.116 635.704 673.563 524.156 821.873 469.217 C 968.569 415.807 1130.45 422.698 1272.08 488.381 C 1407.54 551.379 1524.02 673.25 1575.44 814.07 C 1589.01 818.688 1607.73 817.544 1623.86 823.462 C 1672.42 841.274 1608.57 858.577 1589.73 856.577 z"/>
<path transform="translate(0,0)" fill="rgb(17,62,32)" d="M 1589.73 856.577 C 1597.2 879.516 1603.27 912.8 1606.71 936.53 C 1624.16 1049.37 1608.07 1164.86 1560.43 1268.63 C 1505.67 1388.62 1412.28 1486.8 1295.17 1547.47 C 1251.92 1569.96 1208.65 1585.96 1161.54 1597.82 C 1033.18 1628.87 898.078 1615.52 778.266 1559.96 C 635.284 1494.14 524.34 1374.17 469.886 1226.48 C 417.092 1080.91 423.224 920.483 486.976 779.368 C 553.116 635.704 673.563 524.156 821.873 469.217 C 968.569 415.807 1130.45 422.698 1272.08 488.381 C 1407.54 551.379 1524.02 673.25 1575.44 814.07 C 1558.16 811.57 1543.82 813.53 1529.25 801.622 C 1519.44 793.609 1504.91 793.901 1492.76 793.496 C 1471.04 772.993 1462.19 785.322 1440.87 778.883 C 1434.92 760.35 1381.2 696.092 1365.73 681.488 C 1360.56 686.183 1343.43 704.277 1339.93 706.512 C 1312.24 679.226 1281.24 655.511 1247.66 635.92 C 1242.77 633.043 1231.4 626.299 1226.1 625.434 L 1225.99 624.584 C 1197.36 607.825 1127.35 584.206 1094.35 581.336 L 1093.63 582.713 C 1084.73 572.716 970.262 574.967 955.505 581.513 C 955.074 583.059 954.915 583.267 954.804 584.856 L 953.878 581.224 C 910.212 589.323 861.281 602.555 822.168 624.358 L 821.954 624.808 C 794.78 634.483 727.165 684.956 708.387 707.476 L 707.592 707.673 C 671.169 744.415 650.187 774.583 624.917 819.305 L 624.949 819.946 C 606.729 847.251 584.496 922.148 580.536 955.238 L 580.31 955.754 C 574.231 1008.67 572.991 1038.93 580.509 1092.42 L 580.773 1092.98 C 583.369 1130.58 607.166 1194.73 625.286 1227.97 C 645.403 1263.69 665.727 1295.26 693.739 1325.4 C 697.054 1328.97 705.336 1338.32 708.728 1341.2 L 709.563 1341.85 C 719.114 1349.44 728.369 1359.46 738.107 1367.57 C 765.716 1390.55 791.344 1406.42 822.763 1423.57 C 872.386 1447.59 901.077 1456.4 954.709 1466.36 C 998.677 1474.48 1048.62 1473.85 1092.58 1466.55 L 1093.26 1466.08 C 1118.92 1465.04 1205.61 1437.72 1225.39 1422.62 L 1225.89 1423 C 1257.1 1409.73 1316.66 1365.86 1339.25 1339.92 L 1339.57 1339.96 C 1343.51 1336.92 1352.59 1327.2 1356.43 1323.1 C 1383.93 1293.69 1403.11 1263.37 1422.93 1228.75 L 1422.7 1228.25 C 1425.45 1224.93 1430.69 1213.23 1432.75 1208.75 C 1446.41 1179.07 1464.66 1125.77 1467.29 1093.16 L 1467.64 1092.39 C 1479.46 1094.76 1491.09 1096.51 1502.99 1098.36 C 1504.39 1093.52 1506.02 1077.99 1506.54 1072.35 C 1510.34 1031.47 1509.1 990.288 1502.83 949.721 C 1498.57 917.903 1492.11 900.313 1484.22 869.832 C 1510.83 870.05 1516.38 872.867 1539.56 858.145 C 1553.4 857.912 1578.02 855.943 1589.73 856.577 z"/>
<path transform="translate(0,0)" fill="rgb(203,160,48)" d="M 805.117 591.966 C 810.179 600.873 817.15 617.194 822.168 624.358 L 821.954 624.808 C 794.78 634.483 727.165 684.956 708.387 707.476 L 707.592 707.673 C 707.41 705.138 685.783 684.815 682.344 681.43 C 719.547 645.401 758.522 615.243 805.117 591.966 z"/>
<path transform="translate(0,0)" fill="rgb(203,160,48)" d="M 580.509 1092.42 L 580.773 1092.98 C 583.369 1130.58 607.166 1194.73 625.286 1227.97 C 615.414 1233.44 603.182 1239.85 593.85 1245.76 C 569.537 1202.43 553.979 1148.48 545.382 1099.77 C 549.263 1096.55 572.903 1094.4 580.509 1092.42 z"/>
<path transform="translate(0,0)" fill="rgb(203,160,48)" d="M 1467.64 1092.39 C 1479.46 1094.76 1491.09 1096.51 1502.99 1098.36 C 1492.48 1154.73 1481.64 1193.92 1454.38 1245.37 C 1446.59 1240.81 1430.67 1231.17 1422.93 1228.75 L 1422.7 1228.25 C 1425.45 1224.93 1430.69 1213.23 1432.75 1208.75 C 1446.41 1179.07 1464.66 1125.77 1467.29 1093.16 L 1467.64 1092.39 z"/>
<path transform="translate(0,0)" fill="rgb(203,160,48)" d="M 1242.65 591.498 C 1291.84 618.51 1325.36 641.459 1365.73 681.488 C 1360.56 686.183 1343.43 704.277 1339.93 706.512 C 1312.24 679.226 1281.24 655.511 1247.66 635.92 C 1242.77 633.043 1231.4 626.299 1226.1 625.434 L 1225.99 624.584 C 1229.31 619.624 1239.46 597.958 1242.65 591.498 z"/>
<path transform="translate(0,0)" fill="rgb(203,160,48)" d="M 1339.25 1339.92 L 1339.57 1339.96 C 1344.25 1346.64 1358.53 1360.64 1364.73 1366.87 C 1332.48 1399.85 1282.61 1435.37 1241.33 1455.85 C 1236.71 1446.67 1229.36 1432.41 1225.89 1423 C 1257.1 1409.73 1316.66 1365.86 1339.25 1339.92 z"/>
<path transform="translate(0,0)" fill="rgb(203,160,48)" d="M 708.728 1341.2 L 709.563 1341.85 C 719.114 1349.44 728.369 1359.46 738.107 1367.57 C 765.716 1390.55 791.344 1406.42 822.763 1423.57 C 819.175 1430.63 810.421 1450.12 807.004 1455.44 C 768.481 1438.72 712.268 1396.6 683.732 1366.17 C 691.996 1358.61 700.792 1349.26 708.728 1341.2 z"/>
<path transform="translate(0,0)" fill="rgb(203,160,48)" d="M 593.361 803.329 C 598.932 806.301 619.983 817.948 624.917 819.305 L 624.949 819.946 C 606.729 847.251 584.496 922.148 580.536 955.238 L 580.31 955.754 C 573.418 951.727 549.936 952.315 545.327 948.19 C 554.646 897.926 568.051 848.316 593.361 803.329 z"/>
<path transform="translate(0,0)" fill="rgb(23,115,60)" d="M 625.286 1227.97 C 645.403 1263.69 665.727 1295.26 693.739 1325.4 C 697.054 1328.97 705.336 1338.32 708.728 1341.2 C 700.792 1349.26 691.996 1358.61 683.732 1366.17 C 644.187 1327.12 619.891 1294.34 593.85 1245.76 C 603.182 1239.85 615.414 1233.44 625.286 1227.97 z"/>
<path transform="translate(0,0)" fill="rgb(23,115,60)" d="M 682.344 681.43 C 685.783 684.815 707.41 705.138 707.592 707.673 C 671.169 744.415 650.187 774.583 624.917 819.305 C 619.983 817.948 598.932 806.301 593.361 803.329 C 605.201 771.034 657.386 705.361 682.344 681.43 z"/>
<path transform="translate(0,0)" fill="rgb(203,160,48)" d="M 948.527 545.446 C 989.294 537.15 1058.43 537.734 1099.18 545.361 C 1097.75 554.873 1094.69 572.397 1094.35 581.336 L 1093.63 582.713 C 1084.73 572.716 970.262 574.967 955.505 581.513 C 955.074 583.059 954.915 583.267 954.804 584.856 L 953.878 581.224 C 953.729 575.571 949.56 552.424 948.527 545.446 z"/>
<path transform="translate(0,0)" fill="rgb(23,115,60)" d="M 1422.93 1228.75 C 1430.67 1231.17 1446.59 1240.81 1454.38 1245.37 C 1425.14 1300.35 1405.93 1322.14 1364.73 1366.87 C 1358.53 1360.64 1344.25 1346.64 1339.57 1339.96 C 1343.51 1336.92 1352.59 1327.2 1356.43 1323.1 C 1383.93 1293.69 1403.11 1263.37 1422.93 1228.75 z"/>
<path transform="translate(0,0)" fill="rgb(23,115,60)" d="M 1099.18 545.361 C 1138.68 552.167 1207.96 570.993 1242.65 591.498 C 1239.46 597.958 1229.31 619.624 1225.99 624.584 C 1197.36 607.825 1127.35 584.206 1094.35 581.336 C 1094.69 572.397 1097.75 554.873 1099.18 545.361 z"/>
<path transform="translate(0,0)" fill="rgb(23,115,60)" d="M 1225.39 1422.62 L 1225.89 1423 C 1229.36 1432.41 1236.71 1446.67 1241.33 1455.85 C 1189.53 1481.58 1155.46 1492.25 1099.42 1502.61 C 1098.49 1495.95 1095.52 1470.65 1092.58 1466.55 L 1093.26 1466.08 C 1118.92 1465.04 1205.61 1437.72 1225.39 1422.62 z"/>
<path transform="translate(0,0)" fill="rgb(203,160,48)" d="M 1092.58 1466.55 C 1095.52 1470.65 1098.49 1495.95 1099.42 1502.61 C 1049.63 1510.48 998.904 1510.4 949.134 1502.39 C 951.584 1490.65 952.063 1477.32 954.709 1466.36 C 998.677 1474.48 1048.62 1473.85 1092.58 1466.55 z"/>
<path transform="translate(0,0)" fill="rgb(23,115,60)" d="M 805.117 591.966 C 855.253 568.152 893.385 554.697 948.527 545.446 C 949.56 552.424 953.729 575.571 953.878 581.224 C 910.212 589.323 861.281 602.555 822.168 624.358 C 817.15 617.194 810.179 600.873 805.117 591.966 z"/>
<path transform="translate(0,0)" fill="rgb(23,115,60)" d="M 822.763 1423.57 C 872.386 1447.59 901.077 1456.4 954.709 1466.36 C 952.063 1477.32 951.584 1490.65 949.134 1502.39 C 898.588 1491.99 852.943 1481.53 807.004 1455.44 C 810.421 1450.12 819.175 1430.63 822.763 1423.57 z"/>
<path transform="translate(0,0)" fill="rgb(23,115,60)" d="M 545.382 1099.77 C 538.536 1047.82 536.282 1000.35 545.327 948.19 C 549.936 952.315 573.418 951.727 580.31 955.754 C 574.231 1008.67 572.991 1038.93 580.509 1092.42 C 572.903 1094.4 549.263 1096.55 545.382 1099.77 z"/>
<path transform="translate(0,0)" fill="rgb(245,239,192)" d="M 954.804 584.856 C 954.915 583.267 955.074 583.059 955.505 581.513 C 970.262 574.967 1084.73 572.716 1093.63 582.713 L 1094.35 581.336 C 1127.35 584.206 1197.36 607.825 1225.99 624.584 L 1226.1 625.434 C 1231.4 626.299 1242.77 633.043 1247.66 635.92 C 1281.24 655.511 1312.24 679.226 1339.93 706.512 C 1343.43 704.277 1360.56 686.183 1365.73 681.488 C 1381.2 696.092 1434.92 760.35 1440.87 778.883 C 1462.19 785.322 1471.04 772.993 1492.76 793.496 C 1504.91 793.901 1519.44 793.609 1529.25 801.622 C 1543.82 813.53 1558.16 811.57 1575.44 814.07 C 1589.01 818.688 1607.73 817.544 1623.86 823.462 C 1672.42 841.274 1608.57 858.577 1589.73 856.577 C 1578.02 855.943 1553.4 857.912 1539.56 858.145 C 1516.38 872.867 1510.83 870.05 1484.22 869.832 C 1492.11 900.313 1498.57 917.903 1502.83 949.721 C 1509.1 990.288 1510.34 1031.47 1506.54 1072.35 C 1506.02 1077.99 1504.39 1093.52 1502.99 1098.36 C 1491.09 1096.51 1479.46 1094.76 1467.64 1092.39 L 1467.29 1093.16 C 1464.66 1125.77 1446.41 1179.07 1432.75 1208.75 C 1430.69 1213.23 1425.45 1224.93 1422.7 1228.25 L 1422.93 1228.75 C 1403.11 1263.37 1383.93 1293.69 1356.43 1323.1 C 1352.59 1327.2 1343.51 1336.92 1339.57 1339.96 L 1339.25 1339.92 C 1316.66 1365.86 1257.1 1409.73 1225.89 1423 L 1225.39 1422.62 C 1205.61 1437.72 1118.92 1465.04 1093.26 1466.08 C 1093.81 1459.63 1088.97 1432.53 1087.69 1424.7 C 1083.32 1399.42 1079.28 1374.09 1075.56 1348.71 C 1060.54 1352.82 1046.26 1354.94 1030.75 1356.19 C 1031.55 1388.28 1038.4 1422.35 1045.08 1453.57 L 1031.61 1454.13 C 1020.74 1404.12 1016.55 1368.77 1017.18 1318.13 C 1026.94 1321.59 1033.79 1323.6 1044.06 1324.53 C 1039.64 1329.86 1035.55 1337.32 1031.97 1343.4 C 1077.63 1336.45 1103.05 1331.16 1141.55 1302.33 C 1138.35 1310.97 1135.34 1319.55 1131.37 1327.87 C 1188.79 1301.74 1230.41 1261.42 1266.71 1210.75 L 1263.32 1233.73 C 1315.97 1187.33 1340.61 1144.63 1366.12 1081.23 C 1369.74 1090.09 1371.64 1098.39 1373.88 1107.62 C 1393.52 1075.38 1400.49 1052.08 1407.69 1015.67 C 1407.88 1014.72 1415.07 1005.1 1416.21 1003.07 C 1430.52 977.458 1432.13 949.306 1425.12 921.203 C 1438.03 886.962 1451.36 877.555 1479 856.775 C 1502.04 856.853 1515.1 861.444 1532.98 845.183 C 1558.46 844.857 1602.34 843.121 1625.74 837.475 C 1589.64 828.521 1570.8 826.584 1533.68 822.496 C 1532.95 821.476 1532.18 820.482 1531.37 819.517 C 1515.26 800.488 1478.71 811.258 1473.25 804.068 C 1475.36 800.607 1476.71 800.712 1480.78 798.352 C 1461.49 792.143 1464.04 795.258 1447.24 793.222 C 1423.65 790.364 1413.55 786.57 1388.93 794.049 C 1377.96 797.385 1369.25 803.308 1360.74 806.185 C 1356.3 807.687 1330.06 806.716 1323.81 806.582 C 1316.05 797.242 1301.37 778.234 1292.09 772.441 C 1280.84 766.537 1254 761.837 1242.03 765.898 C 1221.88 772.731 1225.04 791.413 1230.6 806.884 C 1214.18 816.543 1215.1 820.43 1230.68 829.841 C 1228.74 834.45 1225.61 841.611 1224.96 846.307 C 1224.15 852.09 1225.21 858.44 1229 862.939 C 1234.05 868.916 1241.95 871.611 1249.26 872.025 C 1292.92 874.505 1288.86 867.492 1318.8 840.289 C 1321.32 837.999 1322.85 838.167 1325.9 838.579 L 1326.36 839.881 C 1306.93 856.025 1294.02 868.394 1286.58 893.326 C 1278.26 921.188 1265.83 933.146 1246.66 954.019 C 1209.06 994.961 1168.21 1032.51 1117.95 1057.46 C 1106.35 1063.22 1095.27 1070.75 1082.78 1074.76 C 1072.61 1072.66 1065.81 1071.1 1055.75 1067.97 C 1057.02 1058.77 1058.73 1049.64 1060.36 1040.49 C 1064.07 1039.07 1065.75 1040.47 1069.37 1040.64 C 1071.16 1050.82 1071.92 1055.82 1076.94 1065.07 C 1076.52 1041.95 1078.98 1034.65 1087.35 1012.75 C 1103.4 970.811 1136.5 947.912 1160.43 911.961 C 1189.82 867.814 1195.79 812.681 1188.73 760.956 C 1183.31 721.303 1169.52 688.556 1140.76 659.767 C 1128.44 647.434 1116.71 644.884 1102.43 636.686 C 1097.82 634.04 1087.2 622.084 1082.87 618.169 C 1074 610.137 1061.63 604.405 1050.71 599.657 L 1051.11 617.408 C 1020.11 600.058 995.366 596.419 959.769 599.898 C 966.107 605.293 968.465 608.212 973.746 614.752 C 929.916 616.468 913.481 624.576 877.888 648.934 C 860.622 660.75 851.736 665.569 836.431 682.175 C 808.368 712.624 792.572 749.427 772.902 785.224 C 758.486 811.459 743.791 838.036 728.445 863.674 C 710.27 894.039 688.169 921.665 667.868 950.445 C 659.706 962.015 651.506 979.112 644.072 991.564 L 665.148 983.908 C 636.491 1045.18 622.209 1093.17 615.438 1161.06 C 604.914 1122.64 605.653 1127.4 614.08 1087.41 L 580.773 1092.98 L 580.509 1092.42 C 572.991 1038.93 574.231 1008.67 580.31 955.754 L 580.536 955.238 C 584.496 922.148 606.729 847.251 624.949 819.946 L 624.917 819.305 C 650.187 774.583 671.169 744.415 707.592 707.673 L 708.387 707.476 C 727.165 684.956 794.78 634.483 821.954 624.808 L 822.168 624.358 C 861.281 602.555 910.212 589.323 953.878 581.224 L 954.804 584.856 z"/>
<path transform="translate(0,0)" fill="rgb(17,62,32)" d="M 1175.29 1319.25 C 1201.59 1300.95 1232.05 1276.33 1251.65 1250.79 C 1279.91 1277.51 1311.77 1311.83 1339.25 1339.92 C 1316.66 1365.86 1257.1 1409.73 1225.89 1423 L 1225.39 1422.62 C 1209.08 1392.13 1190.75 1351.01 1175.29 1319.25 z"/>
<path transform="translate(0,0)" fill="rgb(17,62,32)" d="M 1226.1 625.434 C 1231.4 626.299 1242.77 633.043 1247.66 635.92 C 1281.24 655.511 1312.24 679.226 1339.93 706.512 L 1340.23 707.016 C 1323.97 723.719 1307.47 740.178 1290.72 756.387 C 1258.7 750.38 1225.8 741.495 1212.57 781.218 C 1209.26 780.005 1206.33 776.819 1203.65 774.364 C 1200.8 747.406 1197.48 730.357 1187.19 704.907 C 1199.79 678.367 1213.45 652.17 1226.1 625.434 z"/>
<path transform="translate(0,0)" fill="rgb(17,62,32)" d="M 1402.21 1082.93 L 1467.29 1093.16 C 1464.66 1125.77 1446.41 1179.07 1432.75 1208.75 C 1430.69 1213.23 1425.45 1224.93 1422.7 1228.25 L 1330.29 1179 C 1344.65 1157.07 1352.2 1143.48 1364.21 1120.03 C 1365.72 1124.35 1366.98 1129.85 1368.14 1134.36 C 1383.98 1116.87 1391.96 1103.56 1402.21 1082.93 z"/>
<path transform="translate(0,0)" fill="rgb(17,62,32)" d="M 624.949 819.946 C 650.954 832.867 686.65 850.734 711.537 865.196 C 691.127 897.228 660.092 934.568 643.771 965.256 C 625.625 962.233 598.402 957.005 580.536 955.238 C 584.496 922.148 606.729 847.251 624.949 819.946 z"/>
<path transform="translate(0,0)" fill="rgb(17,62,32)" d="M 708.387 707.476 C 727.165 684.956 794.78 634.483 821.954 624.808 C 827.077 635.141 835.058 650.037 839.456 660.29 C 802.733 695.948 790.909 722.09 767.966 766.231 C 749.996 750.462 726.069 725.016 708.387 707.476 z"/>
<path transform="translate(0,0)" fill="rgb(23,115,60)" d="M 1467.54 955.636 C 1475.88 953.286 1493.73 951.013 1502.83 949.721 C 1509.1 990.288 1510.34 1031.47 1506.54 1072.35 C 1506.02 1077.99 1504.39 1093.52 1502.99 1098.36 C 1491.09 1096.51 1479.46 1094.76 1467.64 1092.39 C 1475.69 1051.2 1473.58 996.829 1467.54 955.636 z"/>
<path transform="translate(0,0)" fill="rgb(23,115,60)" d="M 1365.73 681.488 C 1381.2 696.092 1434.92 760.35 1440.87 778.883 C 1424.98 775.447 1414.4 775.838 1398.39 777.24 C 1387.22 759.953 1355.93 720.187 1340.23 707.016 L 1339.93 706.512 C 1343.43 704.277 1360.56 686.183 1365.73 681.488 z"/>
<path transform="translate(0,0)" fill="rgb(203,160,48)" d="M 1453.78 895.054 C 1459.88 887.172 1475.53 874.257 1484.22 869.832 C 1492.11 900.313 1498.57 917.903 1502.83 949.721 C 1493.73 951.013 1475.88 953.286 1467.54 955.636 L 1466.19 955.706 L 1466.86 955.023 C 1468.16 947.701 1457.27 903.169 1453.78 895.054 z"/>
<path transform="translate(0,0)" fill="rgb(17,62,32)" d="M 954.804 584.856 C 954.915 583.267 955.074 583.059 955.505 581.513 C 970.262 574.967 1084.73 572.716 1093.63 582.713 C 1092.49 589.675 1091.13 599.804 1089.53 606.44 C 1070.06 593.585 1057.78 587.684 1034.73 582.039 C 1035.18 586.333 1035.69 590.621 1036.25 594.901 C 1015.58 588.922 1000.54 585.781 978.473 586.072 C 973.162 586.143 959.237 587.941 956.187 587.576 C 955.77 586.806 955.061 585.632 954.804 584.856 z"/>
<path transform="translate(0,0)" fill="rgb(17,62,32)" d="M 1453.78 895.054 C 1457.27 903.169 1468.16 947.701 1466.86 955.023 L 1466.19 955.706 C 1460.6 955.957 1448.16 958.529 1442.17 959.6 C 1443.06 947.363 1441.89 932.786 1438.76 920.911 C 1443.27 911.613 1448.17 903.695 1453.78 895.054 z"/>
<path transform="translate(0,0)" fill="rgb(203,160,48)" d="M 1203.65 774.364 C 1206.33 776.819 1209.26 780.005 1212.57 781.218 C 1212.39 787.931 1213.87 794.71 1215.14 801.273 C 1210.38 806.222 1208.17 808.237 1204.63 814.129 C 1205.3 801.585 1204.28 787.079 1203.65 774.364 z"/>
<path transform="translate(0,0)" fill="rgb(17,62,32)" d="M 1266.65 902.365 L 1268.38 904.267 C 1266.89 908.815 1264.75 913.885 1261.44 917.519 C 1238.18 943.217 1208.55 977.818 1181.15 997.921 C 1176.98 1000.98 1110.55 1010.5 1102 1011.77 C 1108.08 999.658 1119.4 978.369 1131.01 971.759 C 1147.06 962.619 1165.7 953.539 1182.25 945.177 L 1266.65 902.365 z"/>
<path transform="translate(0,0)" fill="rgb(17,62,32)" d="M 1093.56 1034.66 C 1101.5 1035.07 1115.46 1037.58 1123.75 1038.82 L 1108.23 1047.07 C 1101.26 1050.98 1096.87 1053.53 1089.47 1056.38 C 1090.15 1049.58 1092.11 1041.47 1093.56 1034.66 z"/>
<path transform="translate(0,0)" fill="rgb(17,62,32)" d="M 1203.28 827.076 C 1203.66 824.607 1203.47 822.218 1204.92 821.075 L 1206.54 825.556 C 1209.4 830.006 1211.41 832.599 1214.67 836.683 C 1210.69 842.422 1204.99 847.604 1199.69 852.178 C 1201.44 843.018 1202.72 836.351 1203.28 827.076 z"/>
<path transform="translate(0,0)" fill="rgb(68,70,34)" d="M 1203.28 827.076 C 1203.66 824.607 1203.47 822.218 1204.92 821.075 L 1206.54 825.556 L 1203.28 827.076 z"/>
<path transform="translate(0,0)" fill="rgb(203,160,48)" d="M 1256.29 885.752 C 1263.29 885.197 1268.8 884.868 1275.81 884.833 C 1274.35 888.574 1268.88 901.302 1268.38 904.267 L 1266.65 902.365 C 1263.64 897.085 1259.58 890.978 1256.29 885.752 z"/>
<path transform="translate(0,0)" fill="rgb(231,241,208)" d="M 1066.69 1021.92 L 1069.37 1040.64 C 1065.75 1040.47 1064.07 1039.07 1060.36 1040.49 C 1062.39 1033.08 1063.81 1029.07 1066.69 1021.92 z"/>
<path transform="translate(0,0)" fill="rgb(147,106,62)" d="M 996.757 617.52 C 1023.39 622.579 1044.29 629.208 1063.1 649.79 C 1064.13 641.203 1064.82 634.313 1065.22 625.695 C 1080.84 636.985 1083.11 643.972 1090.6 661.233 L 1102.61 658.429 C 1112.99 662.485 1120.19 667.098 1128.4 674.829 C 1130.9 677.381 1133.74 680.151 1136.1 682.779 C 1144.94 692.163 1151.93 705.205 1157.57 716.771 L 1155.03 718.9 C 1139.63 701.063 1128.21 698.366 1106.02 695.501 L 1117.27 688.31 C 1094.72 686.615 1080.29 687.566 1065.01 706.507 L 1062.78 709.272 C 1046.47 687.282 1031.93 678.876 1005.17 673.585 C 1010.35 677.198 1015.4 680.527 1020.17 684.676 C 995.447 677.974 976.545 673.4 950.854 679.755 C 958.456 682.427 963.459 684.376 970.743 687.763 C 924.857 692.851 890.565 714.131 871.064 757.005 L 888.461 748.104 C 862.96 784.274 850.35 825.55 858.339 869.849 C 858.751 872.093 859.233 874.324 859.784 876.538 L 864.072 862.876 C 866.102 866.48 865.902 869.871 866.202 874.078 C 866.677 869.603 867.117 866.29 867.967 861.875 C 878.681 901.044 879.582 909.101 913.475 938.431 C 918.619 942.882 932.033 953.061 936.225 957.516 C 935.468 958.171 934.711 958.827 933.954 959.483 C 938.564 967.967 958.763 987.098 962.34 998.101 C 966.482 1003.87 970.152 1011.52 973.468 1017.93 C 968.376 1013.85 956.916 1006.37 953.82 1003.56 C 947.075 999.63 941.435 993.807 935.013 989.065 C 915.878 974.744 894.094 964.357 870.921 958.504 C 840.999 954.245 819.392 953.86 792.109 967.909 L 792.707 968.663 L 798.109 968.303 C 822.877 965.74 844.618 966.337 868.61 974.903 C 896.139 984.731 921.23 1002.25 942.158 1022.58 C 946.474 1026.93 950.274 1033.24 954.708 1037.31 C 980.792 1061.24 1014.29 1076.87 1047.44 1088.46 C 1052.15 1090.1 1063.62 1091.4 1066.02 1095.37 L 1063.62 1097.97 C 1054.54 1107.2 1044.62 1124 1041.8 1136.47 L 1042.3 1138.16 L 1044.46 1136.47 C 1071.96 1100.31 1118.36 1083.05 1155.87 1059.8 C 1202.56 1030.56 1240.62 990.693 1277.41 950.208 C 1288.32 938.212 1293.32 930.611 1297.99 914.831 C 1304.19 893.822 1311.59 879.857 1328.1 865.586 L 1331.4 867.659 C 1352.72 866.806 1362.99 863.624 1383.11 879.756 C 1383.72 880.247 1384.14 880.798 1384.63 881.394 C 1387.73 884.602 1389.15 886.19 1391.76 889.792 C 1393.49 892.084 1393.76 892.416 1395 894.976 C 1395.05 895.38 1395.09 895.784 1395.14 896.188 C 1412.71 931.939 1416.36 957.436 1396.55 994.876 C 1395 986.285 1393.48 976.698 1391.53 968.269 C 1388.94 974.292 1392.86 981.182 1389.09 991.522 C 1387.38 1014.35 1382.99 1033.81 1376.12 1055.52 C 1372.3 1042.59 1369.92 1036.72 1362.99 1025.11 C 1350.06 1080.64 1320.38 1138.04 1283.56 1181.5 C 1285.74 1166.38 1285.21 1150.68 1285 1135.38 C 1260.86 1183.14 1237.43 1222.78 1196.16 1258.73 C 1187.26 1266.49 1176.21 1275.97 1165.78 1281.57 C 1169.94 1269.93 1173.08 1257.96 1175.16 1245.77 C 1141.52 1276.35 1113.63 1304.76 1067.27 1316.68 C 1075.27 1307.96 1080.91 1299.03 1085.09 1287.87 C 1072.1 1295.64 1054.24 1306.23 1039.07 1301.21 C 1020.15 1294.96 988.131 1280.85 971.493 1270.42 C 977.291 1277.36 985.143 1285.94 990.171 1293.03 C 917.503 1266.1 881.116 1244.42 822.098 1194.66 C 825.858 1210.31 828.232 1216.13 835.723 1230.43 C 785.778 1200.04 753.213 1157.25 733.976 1102.45 C 735.267 1173.29 770.698 1252.1 823.012 1300.3 C 819.36 1287.45 816.985 1279.44 815.628 1266.03 C 824.831 1276.98 834.201 1287.8 843.735 1298.47 C 847.78 1302.98 861.329 1317.46 863.892 1321.56 C 881.158 1349.17 903.598 1406.99 912.055 1437.54 C 852.934 1419.56 805.293 1395.73 756.76 1357.35 C 748.664 1350.95 733.367 1338.51 727.416 1330.86 C 702.001 1309.5 646.232 1238.94 637.942 1208.49 C 637.498 1203.32 637.266 1201.72 637.83 1196.66 C 637.232 1118.61 662.216 1025.81 707.134 961.454 C 699.472 962.965 691.832 964.578 684.213 966.294 C 700.763 938.614 726.891 908.455 744.224 880.346 C 762.435 850.812 778.293 820.822 795.019 790.521 C 807.521 767.874 820.201 740.183 837.839 721.692 C 837.432 719.144 837.44 718.252 837.309 715.662 C 843.267 702.721 853.608 693.514 863.784 684.018 C 886.291 663.015 913.689 649.655 944.031 644.607 L 944.948 640.633 C 940.297 639.875 935.869 639.24 931.291 638.096 C 954.758 629.3 986.073 631.026 1009.84 637.856 C 1005.7 629.487 1003.28 624.491 996.757 617.52 z"/>
<path transform="translate(0,0)" fill="rgb(101,67,35)" d="M 1391.76 889.792 C 1393.49 892.084 1393.76 892.416 1395 894.976 C 1395.05 895.38 1395.09 895.784 1395.14 896.188 C 1412.71 931.939 1416.36 957.436 1396.55 994.876 C 1395 986.285 1393.48 976.698 1391.53 968.269 C 1388.94 974.292 1392.86 981.182 1389.09 991.522 C 1387.38 1014.35 1382.99 1033.81 1376.12 1055.52 C 1372.3 1042.59 1369.92 1036.72 1362.99 1025.11 C 1350.06 1080.64 1320.38 1138.04 1283.56 1181.5 C 1285.74 1166.38 1285.21 1150.68 1285 1135.38 C 1260.86 1183.14 1237.43 1222.78 1196.16 1258.73 C 1187.26 1266.49 1176.21 1275.97 1165.78 1281.57 C 1169.94 1269.93 1173.08 1257.96 1175.16 1245.77 C 1141.52 1276.35 1113.63 1304.76 1067.27 1316.68 C 1075.27 1307.96 1080.91 1299.03 1085.09 1287.87 C 1072.1 1295.64 1054.24 1306.23 1039.07 1301.21 C 1020.15 1294.96 988.131 1280.85 971.493 1270.42 C 977.291 1277.36 985.143 1285.94 990.171 1293.03 C 917.503 1266.1 881.116 1244.42 822.098 1194.66 C 825.858 1210.31 828.232 1216.13 835.723 1230.43 C 785.778 1200.04 753.213 1157.25 733.976 1102.45 C 735.267 1173.29 770.698 1252.1 823.012 1300.3 C 819.36 1287.45 816.985 1279.44 815.628 1266.03 C 824.831 1276.98 834.201 1287.8 843.735 1298.47 C 847.78 1302.98 861.329 1317.46 863.892 1321.56 C 881.158 1349.17 903.598 1406.99 912.055 1437.54 C 852.934 1419.56 805.293 1395.73 756.76 1357.35 C 748.664 1350.95 733.367 1338.51 727.416 1330.86 C 723.889 1317.75 715.348 1281.15 710.869 1271.57 C 717.093 1276.32 724.549 1281.07 731.119 1285.46 C 716.917 1259.87 705.399 1213.24 707.228 1184.31 C 718.514 1207.83 721.879 1220.02 742.903 1235.71 C 721.264 1162.95 709.634 1082.16 741.838 1010.49 C 742.45 1048.46 745.32 1069.29 766.069 1100.63 C 765.921 1089.45 765.798 1080.13 766.555 1068.94 C 788.374 1113.54 795.201 1128.14 834.204 1162.2 C 825.056 1143.77 822.936 1130.58 820.319 1110.78 C 847.66 1152.92 881.139 1185.2 926.667 1206.93 C 921.204 1198.34 903.896 1172.77 905.243 1162.95 C 906.916 1162.81 915.533 1170.53 917.349 1172.1 C 933.904 1186.4 950.924 1196.62 971.577 1204.19 C 1024.3 1223.51 1040.59 1223.44 1089.07 1202.72 C 1074.93 1218.05 1063.83 1225.01 1045.83 1234.6 C 1101.87 1227.96 1131.98 1201.99 1168.36 1161.6 C 1162.73 1183.14 1158.18 1191.22 1147.6 1211.15 C 1201.28 1174.99 1218.77 1154.34 1247.26 1094.85 C 1245.28 1116.14 1243.46 1122.76 1237.77 1143.59 C 1269.01 1114.6 1291.02 1073.96 1305.71 1034.57 C 1308.09 1050.51 1308.1 1060.09 1307.96 1076.01 C 1341.87 1037.96 1357.72 997.21 1363.8 947.358 C 1370.31 954.258 1375.01 960.236 1381.06 967.454 C 1389.53 931.395 1390.33 926.883 1383.29 891.713 C 1385.69 890.109 1388.77 890.384 1391.76 889.792 z"/>
<path transform="translate(0,0)" fill="rgb(60,47,19)" d="M 1389.09 991.522 C 1389.01 983.744 1388.5 971.584 1389.65 964.38 L 1390.67 964.118 L 1391.53 968.269 C 1388.94 974.292 1392.86 981.182 1389.09 991.522 z"/>
<path transform="translate(0,0)" fill="rgb(108,77,43)" d="M 1391.76 889.792 C 1393.49 892.084 1393.76 892.416 1395 894.976 C 1394.27 896.126 1393.79 896.504 1392.85 897.504 C 1389.09 897.163 1386.78 894.385 1383.29 891.713 C 1385.69 890.109 1388.77 890.384 1391.76 889.792 z"/>
<path transform="translate(0,0)" fill="rgb(212,187,138)" d="M 996.757 617.52 C 1023.39 622.579 1044.29 629.208 1063.1 649.79 C 1064.13 641.203 1064.82 634.313 1065.22 625.695 C 1080.84 636.985 1083.11 643.972 1090.6 661.233 L 1102.61 658.429 C 1112.99 662.485 1120.19 667.098 1128.4 674.829 L 1125.24 675.917 C 1111.84 669.291 1103.88 665.58 1088.23 669.079 C 1083.91 657.082 1080.43 649.25 1071.84 639.54 L 1065.78 662.263 C 1050.36 644.295 1037.59 640.463 1015.98 631.486 L 1021.33 657.348 C 1010.15 652.298 978.477 639.089 967.021 643.833 L 970.363 646.67 L 969.648 647.893 C 962.25 649.362 953.687 650.563 946.614 652.47 C 918.91 659.937 887.154 677.195 866.875 697.751 C 880.488 693.063 883.76 692.261 898.019 691.618 C 831.506 731.276 801.51 789.499 781.888 862.227 C 778.819 873.601 777.571 884.814 775.26 896.217 C 771.401 882.259 771.836 877.969 772 863.061 C 757.858 887.599 738.247 909.95 724.026 934.62 C 721.202 939.52 718.243 944.436 715.327 949.28 C 727.213 945.253 739.14 941.351 751.108 937.576 C 741.84 949.421 729.198 963.753 721.039 975.344 C 688.013 1022.26 666.916 1073.6 652.697 1128.99 C 648.542 1145.17 640.281 1177.88 640.139 1193.84 L 638.546 1196.99 L 637.83 1196.66 C 637.232 1118.61 662.216 1025.81 707.134 961.454 C 699.472 962.965 691.832 964.578 684.213 966.294 C 700.763 938.614 726.891 908.455 744.224 880.346 C 762.435 850.812 778.293 820.822 795.019 790.521 C 807.521 767.874 820.201 740.183 837.839 721.692 C 837.432 719.144 837.44 718.252 837.309 715.662 C 843.267 702.721 853.608 693.514 863.784 684.018 C 886.291 663.015 913.689 649.655 944.031 644.607 L 944.948 640.633 C 940.297 639.875 935.869 639.24 931.291 638.096 C 954.758 629.3 986.073 631.026 1009.84 637.856 C 1005.7 629.487 1003.28 624.491 996.757 617.52 z"/>
<path transform="translate(0,0)" fill="rgb(68,70,34)" d="M 837.309 715.662 C 842.361 713.23 846.599 710.926 851.486 708.212 L 837.839 721.692 C 837.432 719.144 837.44 718.252 837.309 715.662 z"/>
<path transform="translate(0,0)" fill="rgb(68,70,34)" d="M 944.948 640.633 C 948.381 640.999 949.362 640.531 951.833 642.241 C 948.433 643.857 947.61 643.914 944.031 644.607 L 944.948 640.633 z"/>
<path transform="translate(0,0)" fill="rgb(212,187,138)" d="M 1328.1 865.586 L 1331.4 867.659 C 1352.72 866.806 1362.99 863.624 1383.11 879.756 C 1383.72 880.247 1384.14 880.798 1384.63 881.394 C 1382.94 881.104 1383.86 881.343 1382.25 880.737 C 1364.3 873.984 1354.98 873.612 1337.48 880.386 L 1336.36 880.427 L 1334.85 877.128 C 1311.3 895.84 1298.76 945.764 1295.44 974.644 L 1295.22 976.578 C 1292.23 968.817 1290.31 963.736 1289.29 955.317 C 1274.46 971.518 1258.43 988.669 1242.98 1004.66 C 1225.7 1022.54 1205.54 1039.58 1191.64 1060.4 C 1183.71 1072.27 1175.59 1081.09 1165.51 1090.8 C 1169.08 1081.92 1172.69 1073.07 1176.36 1064.24 C 1143.04 1085.17 1107.84 1100.64 1072.4 1117.54 C 1065.41 1120.88 1049.16 1135.45 1044.46 1136.47 C 1071.96 1100.31 1118.36 1083.05 1155.87 1059.8 C 1202.56 1030.56 1240.62 990.693 1277.41 950.208 C 1288.32 938.212 1293.32 930.611 1297.99 914.831 C 1304.19 893.822 1311.59 879.857 1328.1 865.586 z"/>
<path transform="translate(0,0)" fill="rgb(166,135,93)" d="M 1334.85 877.128 C 1338.91 874.223 1340.26 873.681 1344.88 871.573 C 1342.51 873.902 1338.19 877.433 1337.48 880.386 L 1336.36 880.427 L 1334.85 877.128 z"/>
<path transform="translate(0,0)" fill="rgb(212,187,138)" d="M 798.109 968.303 C 822.877 965.74 844.618 966.337 868.61 974.903 C 896.139 984.731 921.23 1002.25 942.158 1022.58 C 946.474 1026.93 950.274 1033.24 954.708 1037.31 C 980.792 1061.24 1014.29 1076.87 1047.44 1088.46 C 1052.15 1090.1 1063.62 1091.4 1066.02 1095.37 L 1063.62 1097.97 C 1016 1098.99 974.873 1074.56 939.012 1045.26 C 946.477 1061.5 948.008 1069.86 949.58 1087.71 C 944.355 1079.56 939.343 1069.38 934.091 1060.92 C 919.241 1037.01 906.183 1026.14 884.725 1009.5 C 892.616 1011.05 900.486 1012.71 908.332 1014.48 C 883.794 991.754 852.603 978.993 820.261 972.157 C 814.717 970.985 801.915 970.225 798.109 968.303 z"/>
<path transform="translate(0,0)" fill="rgb(101,67,35)" d="M 837.835 853.91 C 844.246 885.373 856.278 906.316 880.143 927.84 C 869.574 905.893 868.255 897.85 866.202 874.078 C 866.677 869.603 867.117 866.29 867.967 861.875 C 878.681 901.044 879.582 909.101 913.475 938.431 C 918.619 942.882 932.033 953.061 936.225 957.516 C 935.468 958.171 934.711 958.827 933.954 959.483 C 938.564 967.967 958.763 987.098 962.34 998.101 C 966.482 1003.87 970.152 1011.52 973.468 1017.93 C 968.376 1013.85 956.916 1006.37 953.82 1003.56 C 947.075 999.63 941.435 993.807 935.013 989.065 C 915.878 974.744 894.094 964.357 870.921 958.504 C 871.932 954.903 861.724 942.797 859.178 937.87 C 842.341 905.284 839.073 889.2 837.835 853.91 z"/>
<path transform="translate(0,0)" fill="rgb(68,70,34)" d="M 962.34 998.101 C 966.482 1003.87 970.152 1011.52 973.468 1017.93 C 968.376 1013.85 956.916 1006.37 953.82 1003.56 C 957.528 1004.99 960.054 1006.12 963.938 1006.86 C 964.988 1004.42 963.311 1001.25 962.34 998.101 z"/>
<path transform="translate(0,0)" fill="rgb(166,135,93)" d="M 1128.4 674.829 C 1130.9 677.381 1133.74 680.151 1136.1 682.779 C 1130.47 681.982 1129.65 680.188 1125.24 675.917 L 1128.4 674.829 z"/>
<path transform="translate(0,0)" fill="rgb(166,135,93)" d="M 640.139 1193.84 C 639.862 1199.48 640.048 1203.18 637.942 1208.49 C 637.498 1203.32 637.266 1201.72 637.83 1196.66 L 638.546 1196.99 L 640.139 1193.84 z"/>
<path transform="translate(0,0)" fill="rgb(245,239,192)" d="M 997.557 691.247 C 1029.53 699.354 1039.23 705.623 1063.99 726.249 C 1075.85 714.313 1079.85 709.636 1095.79 704.018 L 1085.27 715.842 C 1112.65 705.348 1131.59 707.408 1150.22 731.948 L 1135.55 726.759 C 1160.52 745.833 1165.03 766.746 1169.17 797.614 C 1169.43 799.532 1169.67 801.452 1169.91 803.373 C 1159.48 782.805 1160.77 787.613 1145.79 770.949 L 1146.52 770.067 C 1148.86 770.33 1153.16 771.251 1154.81 770.346 C 1153.2 766.704 1151.14 762.803 1147 761.538 C 1129.16 756.094 1117.02 779.262 1101.46 777.992 C 1095.96 777.543 1093.63 770.323 1090.46 767.656 C 1088.21 772.581 1089.59 778.109 1091.52 782.709 C 1094.67 790.207 1104.66 810.193 1110.08 815.137 C 1126.92 830.517 1141.81 829.597 1150.53 853.862 C 1168.35 885.185 1127.72 921.948 1104.9 937.404 C 1112.53 928.214 1115.56 923.719 1120.46 912.874 C 1059.32 961.067 999.259 954.81 936.763 912.463 C 940.878 921.16 944.277 926.711 949.804 934.465 C 944.401 931.747 939.147 928.743 934.064 925.465 C 918.594 915.626 900.173 900.893 896.011 882.292 C 897.109 877.21 898.763 872.265 900.944 867.545 C 907.044 854.254 917.072 840.76 931.249 835.581 C 954.187 825.368 968.631 825.199 991.693 817.164 C 1007.43 811.2 1011.22 805.883 1018.76 791.089 C 1023 789.881 1024.83 789.033 1028.89 787.193 C 1035.83 777.327 1035.2 774.736 1033.29 763.258 C 1021.22 783.43 1008.07 775.96 991.036 765.269 C 969.077 751.488 955.784 743.066 929.813 755.552 C 937.433 756.652 946.032 757.691 953.438 759.419 C 918.624 767.755 901.03 782.456 879.819 810.332 C 886.614 768.814 902.96 742.885 941.016 724.269 C 929.896 725.509 919.083 727.64 908.084 729.657 C 940.217 700.751 980.372 694.105 1019.69 712.806 C 1012.07 704.603 1005.78 698.757 997.557 691.247 z"/>
<path transform="translate(0,0)" fill="rgb(212,187,138)" d="M 896.011 882.292 C 897.109 877.21 898.763 872.265 900.944 867.545 C 907.044 854.254 917.072 840.76 931.249 835.581 C 925.894 844.269 919.093 843.424 910.22 860.648 L 922.638 851.542 C 919.029 859.97 915.284 868.698 918.604 877.865 C 924.909 895.276 954.874 911.219 970.923 917.573 C 997.105 927.938 1032.16 938.732 1059.21 926.139 C 1069.24 921.468 1075.45 917.721 1084.78 911.905 L 1079.8 924.205 C 1104.95 915.071 1126.98 900.326 1141.49 875.856 C 1146.84 866.834 1142.94 853.254 1144.54 850.127 C 1146.69 851.624 1148.13 852.848 1150.53 853.862 C 1168.35 885.185 1127.72 921.948 1104.9 937.404 C 1112.53 928.214 1115.56 923.719 1120.46 912.874 C 1059.32 961.067 999.259 954.81 936.763 912.463 C 940.878 921.16 944.277 926.711 949.804 934.465 C 944.401 931.747 939.147 928.743 934.064 925.465 C 918.594 915.626 900.173 900.893 896.011 882.292 z"/>
<path transform="translate(0,0)" fill="rgb(214,210,165)" d="M 1018.76 791.089 C 1023 789.881 1024.83 789.033 1028.89 787.193 C 1026.76 795.721 1003.19 820.284 994.164 819.129 L 991.693 817.164 C 1007.43 811.2 1011.22 805.883 1018.76 791.089 z"/>
<path transform="translate(0,0)" fill="rgb(17,62,32)" d="M 1056.34 791.196 C 1076.41 789.95 1107.64 795.814 1099.66 824.761 C 1096.29 836.975 1084.02 843.166 1073.2 848.175 C 1094.78 855.037 1109.36 853.019 1114.41 878.77 C 1086.52 859.866 1052.97 862.165 1020.93 866.295 C 1004.77 868.574 988.974 872.898 973.911 879.164 C 980.01 862.592 983.698 857.232 998.109 846.703 C 997.045 850.357 995.523 854.455 994.273 858.101 C 1018.54 851.321 1035.68 849.63 1060.34 848.424 C 1045.72 842.624 1030.39 835.788 1028.5 817.36 C 1026.8 800.728 1042.44 793.878 1056.34 791.196 z"/>
<path transform="translate(0,0)" fill="rgb(214,210,165)" d="M 1060.06 799.237 C 1073.33 798.659 1078.69 799.95 1090.34 805.97 C 1086.03 806.11 1081.57 806.109 1077.25 806.17 C 1069.42 806.196 1054.51 806.767 1047.72 804.283 L 1047.94 802.905 C 1052.27 800.569 1055.28 800.241 1060.06 799.237 z"/>
<path transform="translate(0,0)" fill="rgb(118,115,71)" d="M 1045.42 819.998 C 1054.88 819.435 1057.77 823.945 1059.33 832.385 C 1052.15 830.546 1046.47 827.867 1045.42 819.998 z"/>
<path transform="translate(0,0)" fill="rgb(118,115,71)" d="M 1086.29 819.659 L 1089.32 820.246 L 1089.84 822.337 C 1087.79 826.497 1085.25 828.268 1081.8 831.379 C 1080.4 831.194 1080.41 831.015 1079.08 830.376 L 1078.93 828.008 C 1081.37 823.583 1082.36 823.079 1086.29 819.659 z"/>
<path transform="translate(0,0)" fill="rgb(17,62,32)" d="M 1035.29 885.383 L 1031.28 884.112 L 1030.91 882.95 C 1041.03 876.019 1072.36 877.959 1084.62 880.235 C 1080.61 882.076 1076.4 884.14 1072.27 885.625 C 1060.47 896.207 1047.66 890.632 1035.29 885.383 z"/>
<path transform="translate(0,0)" fill="rgb(214,210,165)" d="M 1035.29 885.383 C 1048.56 885.295 1058.65 886.405 1072.27 885.625 C 1060.47 896.207 1047.66 890.632 1035.29 885.383 z"/>
<path transform="translate(0,0)" fill="rgb(245,239,192)" d="M 1374.46 854.703 C 1375.44 853.359 1376.43 852.022 1377.42 850.692 C 1397.26 824.231 1423.84 808.773 1456.41 804.109 C 1451.08 807.632 1445.68 811.048 1440.22 814.356 C 1435.63 818.724 1426.09 827.664 1422.6 832.36 C 1412.69 845.673 1406.03 855.205 1394.47 867.496 L 1387.3 861.772 C 1383.79 859.475 1378.29 856.746 1374.46 854.703 z"/>
<path transform="translate(0,0)" fill="rgb(212,187,138)" d="M 1387.3 861.772 C 1395.4 850.281 1426.28 813.061 1440.22 814.356 C 1435.63 818.724 1426.09 827.664 1422.6 832.36 C 1412.69 845.673 1406.03 855.205 1394.47 867.496 L 1387.3 861.772 z"/>
<path transform="translate(0,0)" fill="rgb(245,239,192)" d="M 1401.94 876.978 C 1414.12 862.916 1431.06 852.679 1450.1 854.269 C 1452.52 854.47 1454.61 854.429 1456.2 856.179 L 1453.97 857.46 C 1432.83 872.818 1427.53 881.407 1415.09 903.631 C 1413.11 897.857 1411.3 892.212 1408.88 886.604 C 1406.99 883.485 1404.17 879.948 1401.94 876.978 z"/>
<path transform="translate(0,0)" fill="rgb(212,187,138)" d="M 1408.88 886.604 C 1420.78 877.404 1436.97 856.638 1453.97 857.46 C 1432.83 872.818 1427.53 881.407 1415.09 903.631 C 1413.11 897.857 1411.3 892.212 1408.88 886.604 z"/>
<path transform="translate(0,0)" fill="rgb(245,239,192)" d="M 1340.4 846.806 C 1359.22 821.838 1388.75 802.77 1420.53 801.654 C 1410.25 805.984 1403.5 809.872 1394.34 816.125 C 1382.67 826.197 1372.82 836.461 1363.08 848.357 C 1362.04 849.63 1355.67 847.694 1354.21 847.281 C 1349.36 846.496 1345.29 846.744 1340.4 846.806 z"/>
<path transform="translate(0,0)" fill="rgb(212,187,138)" d="M 1354.21 847.281 C 1363.44 837.931 1377.26 822.312 1388.51 815.215 C 1390.83 813.753 1392.31 815.075 1394.34 816.125 C 1382.67 826.197 1372.82 836.461 1363.08 848.357 C 1362.04 849.63 1355.67 847.694 1354.21 847.281 z"/>
<path transform="translate(0,0)" fill="rgb(203,160,48)" d="M 1237.11 817.459 C 1251.31 816.306 1270 817.282 1284.31 817.422 C 1305.59 817.629 1327 818.228 1348.26 819.109 L 1340.85 823.653 C 1340.21 824.257 1339.56 824.848 1338.9 825.424 C 1338.41 825.819 1335.46 828.274 1335.43 828.276 C 1325.13 828.698 1295.83 826.385 1287.64 825.58 C 1278.55 824.686 1239.03 823.281 1235.39 819.037 L 1237.11 817.459 z"/>
<path transform="translate(0,0)" fill="rgb(203,160,48)" d="M 1490.53 819.006 C 1505.65 819.074 1520.91 816.701 1523.64 834.99 C 1516.87 848.404 1503.54 845.312 1490.49 844.933 C 1490 836.297 1490.01 827.64 1490.53 819.006 z"/>
<path transform="translate(0,0)" fill="rgb(245,239,192)" d="M 1490.53 819.006 C 1505.65 819.074 1520.91 816.701 1523.64 834.99 C 1510.65 824.178 1506.51 829.804 1492.9 827.031 C 1489.96 824.23 1490.94 824.47 1490.53 819.006 z"/>
<path transform="translate(0,0)" fill="rgb(203,160,48)" d="M 958.339 769.219 C 964.837 772.344 962.404 773.97 963.278 780.267 C 967.877 813.411 988.797 792.793 996.694 793.876 C 996.556 797.427 995.932 797.135 993.612 800.658 C 970.049 818.446 945.461 795.249 958.339 769.219 z"/>
<path transform="translate(0,0)" fill="rgb(203,160,48)" d="M 1447.93 825.724 C 1452.22 821.018 1456.77 817.155 1463.34 818.252 C 1465.79 820.709 1465 820.203 1465.42 824.68 C 1464.25 830.507 1464.57 838.727 1464.58 844.877 C 1456.5 843.003 1445.09 840.722 1437.39 838.408 C 1440.92 833.85 1443.86 829.849 1447.93 825.724 z"/>
<path transform="translate(0,0)" fill="rgb(245,239,192)" d="M 1447.93 825.724 C 1452.22 821.018 1456.77 817.155 1463.34 818.252 C 1465.79 820.709 1465 820.203 1465.42 824.68 C 1461.54 828.345 1452.53 827.634 1447.93 825.724 z"/>
<path transform="translate(0,0)" fill="rgb(203,160,48)" d="M 1249.02 775.239 C 1265.99 776.696 1283.99 775.974 1295.53 789.639 C 1299.81 794.715 1308.22 803.789 1310.75 809.675 L 1309.85 810.595 L 1307.45 809.302 C 1292.33 793.483 1285.98 784.194 1262.63 781.056 C 1257.28 780.337 1247.89 779.51 1243.18 778.148 C 1244.88 776.075 1246.01 776.28 1249.02 775.239 z"/>
<path transform="translate(0,0)" fill="rgb(203,160,48)" d="M 1134.72 780.507 C 1140.16 784.652 1141.17 792.609 1138.17 798.52 C 1135.9 802.938 1131.88 806.197 1127.09 807.499 C 1121.31 809.071 1117.2 806.583 1112.5 803.715 C 1110.63 801.384 1110.68 801.258 1109.49 798.471 L 1110.16 797.371 C 1128.86 804.793 1133.19 798.706 1134.72 780.507 z"/>
<path transform="translate(0,0)" fill="rgb(203,160,48)" d="M 1472.53 818.452 C 1476.86 818.578 1479.71 817.933 1482.95 819.982 C 1483.53 823.302 1483.29 823.734 1482.84 827.011 L 1482.92 844.66 L 1472.45 844.36 C 1472.29 835.702 1472.01 827.098 1472.53 818.452 z"/>
<path transform="translate(0,0)" fill="rgb(231,241,208)" d="M 1472.53 818.452 C 1476.86 818.578 1479.71 817.933 1482.95 819.982 C 1483.53 823.302 1483.29 823.734 1482.84 827.011 C 1479.46 827.025 1477.96 827.061 1474.53 826.536 C 1472.31 823.568 1472.98 822.837 1472.53 818.452 z"/>
<path transform="translate(0,0)" fill="rgb(231,241,208)" d="M 1531.78 831.06 C 1540.07 831.149 1575.66 832.138 1580.22 835.666 C 1573.54 836.035 1537.01 836.561 1532.45 834.221 L 1531.78 831.06 z"/>
<path transform="translate(0,0)" fill="rgb(231,241,208)" d="M 1124.05 781.408 C 1125.68 780.534 1127.66 780.675 1129.15 781.77 C 1130.63 782.866 1131.36 784.72 1131.01 786.534 C 1130.65 788.347 1129.29 789.794 1127.5 790.252 C 1125.16 790.852 1122.73 789.609 1121.86 787.357 C 1120.98 785.105 1121.92 782.552 1124.05 781.408 z"/>
<path transform="translate(0,0)" fill="rgb(231,241,208)" d="M 973.074 775.354 C 979.227 776.931 982.897 777.746 982.395 784.525 C 978.318 785.381 977.27 785.327 974.188 783.435 C 972.429 780.264 972.85 778.97 973.074 775.354 z"/>
<path transform="translate(0,0)" fill="rgb(159,171,112)" d="M 1245.48 828.545 L 1247.14 830.04 C 1246.82 832.737 1241.28 842.462 1239.44 847.178 L 1238.94 848.479 L 1238.67 849.125 C 1237.14 843.096 1242.37 833.484 1245.48 828.545 z"/>
<path transform="translate(0,0)" fill="rgb(214,210,165)" d="M 1328.1 865.586 C 1335.64 860.278 1339.94 860.372 1348.98 859.177 C 1344.76 861.321 1334.49 865.696 1331.4 867.659 L 1328.1 865.586 z"/>
<path transform="translate(0,0)" fill="rgb(118,115,71)" d="M 864.072 862.876 C 864.83 859.112 864.865 857.844 866.871 854.488 C 868.604 856.357 867.915 858.462 867.967 861.875 C 867.117 866.29 866.677 869.603 866.202 874.078 C 865.902 869.871 866.102 866.48 864.072 862.876 z"/>
<path transform="translate(0,0)" fill="rgb(118,115,71)" d="M 1155.03 718.9 L 1157.57 716.771 L 1163.04 730.348 C 1159.6 725.982 1157.95 723.576 1155.03 718.9 z"/>
<path transform="translate(0,0)" fill="rgb(17,62,32)" d="M 1039.13 246.193 C 1060.24 246.999 1091.65 250.126 1112.92 252.489 C 1118.61 258.946 1121.61 262.31 1128.11 267.812 C 1125.72 287.697 1124.65 311.076 1123.32 331.253 C 1118.45 336.023 1112.45 339.979 1106.88 343.954 C 1110.21 360.509 1115.12 390.672 1122.26 404.787 C 1112.26 403.556 1097.22 403.634 1087.36 401.276 C 1085.88 400.92 1086.78 394.406 1086.62 392.18 C 1085.44 376.533 1081.17 358.558 1078.02 343.1 C 1073.48 342.823 1068.78 342.97 1064.22 343.017 C 1063.06 363.771 1059.74 378.249 1061.13 399.765 C 1055.09 399.35 1047.36 398.947 1041.44 397.963 C 1024.7 395.182 1010.02 398.644 993.204 399.339 C 990.742 387.827 987.824 378.995 984.216 367.826 C 974.038 368.266 960.219 369.997 949.827 371.041 C 948.761 376.517 947.912 382.751 947.038 388.322 C 946.733 395.133 946.806 396.789 947.812 403.524 L 912.68 406.387 C 921.881 375.145 925.953 342.633 931.697 310.589 C 934.572 294.552 938.035 277.885 939.935 261.752 C 940.302 258.641 938.691 254.455 937.612 251.495 C 949.829 250.898 963.199 249.132 975.965 248.396 C 975.501 251.232 974.702 255.705 975.608 258.388 C 988.123 295.425 1001.63 332.362 1014.94 369.144 C 1018.56 379.132 1022.61 388.904 1028.04 397.85 L 1028.8 394.126 C 1031.18 382.479 1033.33 353.35 1034.28 340.324 C 1036.4 311.17 1041.62 274.881 1039.13 246.193 z M 1067.09 315.749 C 1074.59 316.395 1086.85 317.9 1093.72 316.21 C 1094.81 311.109 1094.94 305.444 1095.9 300.896 C 1101.15 275.862 1093.29 276.988 1069.99 276.797 C 1068.77 287.216 1067.21 305.328 1067.09 315.749 z M 968.876 342.241 L 975.646 341.677 C 972.368 328.026 965.236 310.324 961.326 295.649 C 958.192 311.223 956.022 327.064 953.386 342.751 L 968.876 342.241 z"/>
<path transform="translate(0,0)" fill="rgb(17,62,32)" d="M 1693.28 631.876 C 1696.48 634.148 1725.83 689.048 1730.7 697.298 C 1728.76 704.949 1726.96 711.47 1724.57 718.986 C 1715.62 724.601 1693.27 735.477 1683.4 740.349 C 1677.62 738.527 1670.91 734.682 1665.42 731.804 C 1663.93 737.611 1662.57 746.545 1661.44 752.68 L 1660.58 753.203 C 1649.84 759.667 1630.76 770.89 1618.61 775.332 C 1617.6 775.7 1613.78 774.837 1612.5 774.518 C 1607.22 772.46 1601.81 770.749 1596.43 768.979 C 1585.25 749.39 1572.53 722.654 1562.19 702.158 C 1580.5 696.094 1680.23 643.936 1693.28 631.876 z M 1601.21 717.613 C 1604.87 725.9 1609.01 734.759 1614.44 742.047 C 1622.45 739.451 1637.99 730.801 1645.28 725.997 C 1643.45 721.389 1636.29 703.232 1633.61 700.944 C 1623 706.448 1611.91 712.399 1601.21 717.613 z M 1657.57 688.86 C 1660.91 695.214 1667.06 707.628 1671.46 712.454 C 1679.5 709.1 1691.86 702.081 1699.45 697.394 C 1697.12 693.004 1688.17 675.766 1685.58 672.927 C 1676.29 678.164 1666.71 683.419 1657.57 688.86 z"/>
<path transform="translate(0,0)" fill="rgb(17,62,32)" d="M 860.574 264.218 C 867.829 263.872 878.055 272.245 883.233 277.119 C 886.218 287.967 888.899 302.219 891.529 313.595 C 897.345 339.393 903.629 365.083 910.377 390.653 L 900.016 409.89 C 881.061 414.188 858.272 419.238 839.956 425.043 C 835.685 426.073 831.29 427.39 827.043 428.582 C 826.545 407.257 800.781 301.089 791.966 281.149 C 810.578 275.502 841.201 268.501 860.574 264.218 z M 830.045 299.424 C 833.877 323.527 841.178 347.889 846.545 371.725 C 848.021 378.281 849.815 385.942 851.991 392.241 C 854.644 393.337 853.472 392.857 857.215 391.979 C 863.236 390.358 870.846 388.673 876.189 385.813 C 877.559 382.5 858.848 298.572 855.523 295.153 C 852.145 294.458 852.05 294.645 848.766 295.193 C 842.846 296.541 835.919 298.31 830.045 299.424 z"/>
<path transform="translate(0,0)" fill="rgb(17,62,32)" d="M 494.707 457.208 L 516.421 456.926 L 566.967 509.907 C 576.322 519.76 591.317 534.917 599.321 545.592 C 598.573 552.812 598.201 558.494 597.965 565.751 C 590.654 573.372 564.407 602.48 556.677 605.827 C 549.864 606.37 544.159 606.551 537.316 606.653 C 523.469 593.668 509.449 578.586 496.194 564.824 C 481.859 549.94 466.711 534.667 453.058 519.303 C 452.763 510.312 453.161 505.198 454.48 496.386 C 465.155 484.832 482.947 468.376 494.707 457.208 z M 484.199 507.213 C 490.244 515.308 501.751 526.853 509.012 534.443 C 522.081 548.104 535.983 563.231 549.919 575.86 C 556.355 569.386 561.463 563.867 566.87 556.441 C 561.199 548.504 507.716 490.668 502.066 488.657 C 494.238 494.897 489.956 498.915 484.199 507.213 z"/>
<path transform="translate(0,0)" fill="rgb(17,62,32)" d="M 1289.7 294.225 C 1295.53 295.682 1336.27 312.798 1342 316.204 C 1345.67 322.663 1347.95 328.026 1350.69 334.881 C 1346.27 347.337 1343.67 353.919 1341.76 367.023 C 1332.54 363.675 1315.43 357.62 1307.64 352.756 C 1325.78 332.382 1311.19 331.4 1292.19 326.172 C 1288.32 335.858 1285.07 345.558 1281.69 355.417 C 1292.05 361.057 1307.52 367.343 1318.71 372.213 C 1323.63 379.217 1325.55 384.576 1328.88 392.458 C 1320.87 409.817 1315.08 431.123 1305.56 447.952 C 1300.38 450.943 1292.8 453.933 1287.06 455.574 C 1270.25 449.871 1251.61 440.41 1233.79 433.917 C 1230.61 427.031 1228.16 421.495 1225.52 414.405 C 1227.65 403.468 1231.78 394.914 1234.11 381.772 C 1245.33 387.009 1256.78 390.71 1268.54 394.433 C 1262.56 401.446 1260.4 404.271 1257.02 412.487 C 1264.34 416.947 1274.64 420.188 1282.88 422.976 C 1287.32 414.822 1291.91 401.684 1294.7 392.794 C 1283.87 386.648 1267.99 381.382 1255.64 375.008 C 1252.75 368.546 1250.36 362.547 1247.8 355.942 C 1251.85 341.896 1262.87 316.163 1268.6 301.918 C 1274.7 298.961 1283.11 296.422 1289.7 294.225 z"/>
<path transform="translate(0,0)" fill="rgb(17,62,32)" d="M 359.363 644.091 C 369.253 643.402 380.325 652.484 395.358 655.99 C 390.317 664.018 383.018 678.426 378.16 687.244 C 371.897 681.295 369.115 679.326 361.05 676.355 C 355.995 683.088 352.011 691.825 348.239 699.461 C 356.78 705.283 367.998 711.303 377.162 716.171 C 399.204 688.29 384.844 684.192 420.865 671.491 C 434.014 677.427 451.075 688.13 463.986 695.174 C 474.927 701.144 475.081 708.958 477.612 720.482 C 467.443 738.013 459.851 753.58 450.386 771.329 C 444.821 773.636 439.014 775.136 433.218 776.792 C 424.836 777.702 409.238 768.241 398.933 764.529 C 403.976 753.342 408.794 744.334 414.617 733.58 C 421.274 738.592 424.753 741.419 432.165 745.051 L 446.166 721.464 C 436.12 714.345 427.418 709.522 416.205 704.589 C 408.605 714.805 401.586 732.261 393.431 741.694 C 386.933 744.276 380.9 746.209 374.242 748.357 C 362.604 743.816 332.036 727.477 321.715 720.512 C 320.028 713.614 318.716 706.256 317.354 699.257 C 322.569 687.51 337.024 661.432 343.567 650.146 C 350.262 646.721 352.134 646.118 359.363 644.091 z"/>
<path transform="translate(0,0)" fill="rgb(17,62,32)" d="M 707.596 313.976 C 708.835 313.927 709.316 314.123 710.554 314.357 C 710.749 315.593 710.977 316.808 711.203 318.038 C 713.95 333.04 766.574 437.513 777.687 447.242 C 769.825 451.943 754.54 459.407 746.133 463.337 C 741.392 448.733 726.865 418.731 719.145 405.31 L 693.633 419.343 C 703.907 439.191 710.508 456.574 723.939 474.769 C 715.688 479.061 706.943 484.162 698.761 488.718 L 694.522 490.455 C 692.009 488.988 693.124 489.669 691.895 485.904 C 685.727 467.002 674.371 445.847 665.301 427.932 C 653.391 404.411 641.712 377.24 626.805 355.917 C 636.124 350.105 647.644 344.645 657.562 339.633 C 660.962 354.813 674.847 380.762 682.336 395.12 C 690.443 390.463 699.061 386.735 707.328 382.056 C 699.486 365.092 689.657 342.715 678.042 328.606 C 687.791 323.525 697.645 318.647 707.596 313.976 z"/>
<path transform="translate(0,0)" fill="rgb(17,62,32)" d="M 1618.03 525.548 C 1622.75 527.107 1637.17 548.975 1640.87 554.208 L 1637.37 555.67 C 1619.15 563.153 1568.34 607.419 1549.46 620.907 C 1546.36 623.122 1544.84 624.921 1544.58 628.402 C 1547.69 635.854 1553.68 641.668 1559.16 647.608 C 1570.17 642.695 1645.93 582.265 1654.49 572.116 C 1661.11 579.965 1670.18 593.509 1675.9 602.076 L 1665.82 606.209 C 1653.65 614.324 1639.51 625.719 1627.84 634.749 C 1607.86 650.06 1588.07 665.622 1568.48 681.432 C 1560.12 680.672 1554.7 679.697 1546.62 677.669 C 1540.52 672.121 1518.28 641.809 1512.12 633.644 C 1512.71 625.1 1513.32 619.126 1514.67 610.69 C 1519.18 606.076 1530.28 597.606 1535.54 593.403 C 1552.23 580.189 1569.06 567.17 1586.05 554.35 C 1598.09 545.112 1608.99 537.75 1618.03 525.548 z"/>
<path transform="translate(0,0)" fill="rgb(17,62,32)" d="M 1449.66 376.325 C 1457.42 376.814 1491.26 403.733 1498.83 409.473 C 1500.61 416.359 1501.24 422.289 1502.13 429.328 C 1495.33 440.403 1490.67 447.681 1486.13 459.826 C 1476.08 452.459 1465.88 445.281 1455.56 438.297 C 1456.6 437.661 1457.62 437.006 1458.63 436.333 C 1476.85 424.167 1463.78 412.077 1448.1 409.766 C 1444.25 411.27 1398.7 476.473 1394.8 483.676 C 1399.89 488.6 1409.69 498.018 1416.54 499.308 C 1418.29 499.638 1418.55 498.665 1420.49 497.046 C 1422.96 491.942 1425.39 486.145 1427.71 480.912 C 1436 486.342 1447.65 496.207 1457.21 502.794 C 1442.44 514.334 1445.31 515.35 1434.45 528.428 C 1431.83 529.095 1429.19 529.721 1426.55 530.307 C 1404.74 535.078 1384.38 511.89 1365.74 499.95 C 1363.8 491.629 1363.03 486.532 1362.02 478.01 C 1377.33 453.881 1396.59 430.42 1412.02 406.164 C 1417.34 397.792 1424.58 387.086 1430.71 379.432 L 1449.66 376.325 z"/>
<path transform="translate(0,0)" fill="rgb(17,62,32)" d="M 599.841 372.745 C 604.73 373.381 618.504 389.177 621.879 393.426 C 611.604 399.455 602.299 404.465 593.188 412.161 C 605.517 430.153 617.992 448.045 630.611 465.835 C 639.673 478.696 654.415 501.406 665.936 510.862 C 656.974 518.24 645.847 526.353 636.529 533.485 C 633.765 521.686 631.601 519.535 624.587 509.5 C 606.145 483.042 587.511 456.718 568.687 430.531 C 558.684 436.76 551.092 443.592 542.569 451.664 C 537.958 444.854 532.015 432.667 528.018 425.042 C 548.003 412.428 580.713 387.535 599.841 372.745 z"/>
<path transform="translate(0,0)" fill="rgb(17,62,32)" d="M 1156.52 258.508 C 1182.19 262.344 1217.32 273.222 1245.29 278.111 C 1244.55 288.118 1243.72 298.118 1242.8 308.11 C 1231.99 304.014 1220.86 300.837 1209.52 298.615 C 1202.13 329.567 1195.17 360.617 1188.63 391.756 C 1185.75 403.433 1184.64 407.854 1185.74 419.665 C 1174.34 416.772 1162.97 413.757 1151.64 410.62 C 1157.93 395.364 1161.72 375.093 1165.46 358.63 L 1180.75 292.216 C 1168.68 288.785 1159.76 285.949 1147.25 285.919 C 1149.85 276.641 1153.26 267.58 1156.52 258.508 z"/>
<path transform="translate(0,0)" fill="rgb(17,62,32)" d="M 1536 440.773 C 1541.48 444.569 1556.55 459.931 1562.26 465.328 C 1544 475.705 1494.49 534.069 1476.06 552.358 C 1485.9 563.374 1505.89 583.028 1519.13 588.836 C 1512.51 595.771 1504.54 601.813 1497.05 607.84 C 1495.37 608.991 1495.34 608.887 1493.45 609.689 C 1491.14 608.32 1473.12 589.177 1469.51 585.507 C 1457.7 573.605 1445.68 561.902 1433.48 550.404 C 1449.42 539.575 1525.77 457.607 1536 440.773 z"/>
<path transform="translate(0,0)" fill="rgb(17,62,32)" d="M 390.057 578.54 C 393.177 580.088 408.26 593.678 412.672 596.81 C 437.783 614.639 462.263 633.669 487.25 651.629 C 496.93 638.702 511.74 620.893 517.899 606.851 C 523.912 611.36 534.918 621.622 540.479 626.947 C 534.584 635.284 528.515 643.497 522.277 651.58 C 511.527 666.066 500.981 680.703 490.642 695.485 C 485.201 689.523 479.311 684.437 472.76 679.677 C 441.945 657.285 411.975 633.458 380.521 612.002 C 377.325 609.822 372.592 608.647 368.839 607.735 C 375.772 597.903 382.846 588.17 390.057 578.54 z"/>
<path transform="translate(0,0)" fill="rgb(17,62,32)" d="M 1128.25 1663.23 C 1137.56 1661.7 1139.84 1664.83 1146.4 1670.62 L 1154.99 1720.09 C 1156.7 1730.03 1158.54 1739.44 1159.32 1749.52 C 1160.82 1768.81 1142.38 1768.65 1128 1770.73 C 1119.93 1771.84 1106.73 1771.52 1104.95 1761.45 C 1100.33 1735.28 1094.77 1703.56 1093.62 1677.31 C 1097.26 1672.75 1098.51 1670.83 1103.48 1667.49 C 1112.45 1666.32 1119.39 1665.09 1128.25 1663.23 z M 1130.24 1751.74 C 1133.82 1751.11 1136.82 1751.07 1139.45 1748.75 C 1139.44 1741.66 1131.11 1688.76 1129.36 1682.82 C 1126.2 1681.48 1124.73 1681.91 1121.32 1682.2 C 1118.05 1682.94 1115.58 1683.08 1113.24 1685.37 C 1112.28 1691.83 1121.14 1743.17 1123.31 1751.16 C 1125.83 1753.07 1126.96 1752.39 1130.24 1751.74 z"/>
<path transform="translate(0,0)" fill="rgb(17,62,32)" d="M 848.456 1647.04 C 887.01 1656.05 889.974 1651.06 885.319 1691.49 C 877.511 1688.97 871.301 1687.68 863.289 1686.21 C 865.841 1680.99 867.288 1677.36 869.334 1671.97 C 863.622 1670.15 857.754 1668.78 851.934 1667.32 C 848.883 1674.74 846.605 1683.57 845.387 1691.51 C 854.225 1693.84 862.607 1696.04 871.345 1698.79 C 875.038 1704.58 875.819 1706.14 877.785 1712.72 C 874.368 1725.08 871.159 1737.5 868.158 1749.97 C 862.966 1753.73 861.246 1755.15 855.13 1757.62 C 845.975 1755.51 824.017 1751.95 818.454 1745.83 C 811.164 1737.81 816.128 1724.84 816.941 1715.08 L 817.036 1713.86 C 823.782 1715.39 831.165 1717.51 837.913 1719.3 C 832.19 1735.16 834.972 1734.84 850.386 1738.84 C 853.431 1730.6 855.146 1722.71 857.182 1714.2 C 848.741 1711.01 838.769 1707.81 830.149 1704.82 L 824.529 1692.52 C 827.498 1682.07 832.294 1662.27 836.166 1653.17 C 840.895 1650.18 843.414 1649.17 848.456 1647.04 z"/>
<path transform="translate(0,0)" fill="rgb(17,62,32)" d="M 1194.27 1648.15 C 1215.53 1644.02 1219.45 1679.38 1223.68 1694.76 C 1217.1 1713.28 1208.4 1709.94 1190.99 1714.44 C 1192.04 1722.85 1194.26 1732.13 1195.59 1740.89 L 1214.68 1735.06 L 1209.39 1723.21 C 1217.52 1720.46 1221.81 1719.33 1230.21 1717.59 C 1231.46 1728.46 1233.56 1736.34 1236.99 1746.61 C 1225.83 1749.95 1213.58 1753.03 1202.27 1756.1 C 1195.47 1758.03 1189.1 1759.55 1182.22 1761.15 C 1178.77 1747.77 1174.59 1733.25 1171.86 1719.77 C 1170.04 1710.75 1172.19 1706.92 1177.33 1700.07 C 1184.43 1697.14 1194.03 1695.08 1201.94 1692.39 C 1200.04 1683.42 1198.63 1675.89 1195.5 1667.22 C 1190.11 1668.34 1185.07 1669.82 1179.78 1671.31 C 1181.12 1677.47 1182.13 1679.55 1184.62 1685.16 C 1177.87 1686.8 1171.4 1688.98 1164.79 1691.09 C 1163.68 1684.65 1161.29 1675.84 1159.7 1669.3 C 1166.95 1649.51 1175.79 1653.73 1194.27 1648.15 z"/>
<path transform="translate(0,0)" fill="rgb(17,62,32)" d="M 1054.18 1671.55 C 1069.07 1670.26 1071.73 1669.16 1080.76 1681.87 C 1081.13 1695.19 1081.86 1708.5 1082.94 1721.79 C 1072.07 1738.45 1063.37 1733.02 1045.83 1734.73 C 1046.76 1741.33 1046.93 1753.16 1047.24 1760.16 C 1053.45 1760.06 1060.14 1759.67 1066.39 1759.41 C 1065.52 1754.8 1065.18 1750.66 1064.73 1746.01 C 1071.84 1745.66 1076.67 1745.34 1083.77 1745.96 C 1083.92 1755.83 1084.93 1766.51 1085.22 1776.74 C 1077.56 1776.05 1063.71 1776.8 1055.55 1777.06 L 1029.57 1778.25 C 1028.35 1763.46 1028.38 1743.02 1027.98 1727.96 C 1031.91 1723.57 1033.66 1721.87 1038.08 1718.07 C 1046.55 1716.57 1054.14 1717.45 1061.97 1714.96 C 1065.28 1710.82 1064.1 1692.64 1059.7 1690.04 C 1048.64 1683.51 1043.52 1691.89 1047.24 1703.37 L 1047.69 1704.75 L 1025.91 1705.38 C 1026.29 1698.69 1026.03 1689.77 1026.02 1682.91 C 1036.16 1668.81 1038.36 1673.02 1054.18 1671.55 z"/>
<path transform="translate(0,0)" fill="rgb(17,62,32)" d="M 1258.54 1627.05 C 1264.86 1626.13 1269.65 1628.99 1275.27 1631.71 C 1279.38 1641.6 1284.41 1653.58 1286.71 1663.98 C 1285.16 1667.64 1283.57 1671.28 1281.95 1674.91 L 1293.54 1680.05 C 1297.18 1688.45 1301.73 1702.06 1304.99 1711 C 1299.6 1728.58 1286.47 1730.73 1270.3 1735 C 1263.22 1736.87 1259.27 1734.88 1252.9 1732.04 C 1249.8 1724.46 1246.87 1717.5 1243.44 1710.08 L 1263.23 1703.02 C 1264.73 1708.79 1265.54 1710.96 1267.82 1716.43 C 1273.34 1714.9 1278.3 1713.02 1283.67 1711.07 C 1281.26 1702.09 1279.3 1695.51 1276.14 1686.79 C 1270.29 1688.77 1264.46 1690.81 1258.66 1692.91 C 1256 1687.23 1254.39 1682.3 1252.37 1676.38 C 1257.67 1673.98 1262.94 1671.52 1268.19 1669 C 1265.63 1660.39 1263.38 1654.78 1259.44 1646.8 C 1253.75 1648.8 1250.23 1650.59 1244.91 1653.25 L 1248.73 1664.9 C 1242.1 1668.46 1236.91 1670.47 1229.88 1673.06 C 1228.12 1665.65 1225.67 1657.33 1223.67 1649.9 C 1225.83 1643.98 1226.31 1642.85 1229.86 1637.68 C 1234.9 1635.04 1252.34 1629.26 1258.54 1627.05 z"/>
<path transform="translate(0,0)" fill="rgb(17,62,32)" d="M 777.356 1623.69 C 790.46 1627.27 813.999 1636.13 828.189 1640.81 C 826.144 1646.8 824.706 1651.94 823.057 1658.05 C 811.697 1654.37 800.367 1650.6 789.068 1646.74 C 786.541 1654.45 783.956 1662.14 781.314 1669.81 C 787.286 1672.1 794.373 1674.29 800.518 1676.35 C 798.529 1682.26 796.07 1688.55 793.965 1694.52 C 786.93 1691.09 782.545 1689.26 775.181 1686.57 C 771.884 1692.99 768.438 1702.82 765.764 1709.78 C 768.943 1713.77 792.247 1720.6 798.578 1722.66 C 796.398 1729.53 794.64 1733.69 791.731 1740.3 C 774.892 1734.24 758.112 1728.01 741.394 1721.62 C 753.147 1691.56 767.345 1654.02 777.356 1623.69 z"/>
<path transform="translate(0,0)" fill="rgb(17,62,32)" d="M 900.378 1659.94 C 919.991 1663.67 938.425 1666.26 958.038 1669.43 L 957.792 1687.69 C 950.203 1686.47 942.583 1685.46 934.94 1684.65 C 931.788 1708.57 927.724 1731.17 924.374 1754.77 C 923.437 1759.9 923.449 1765.26 923.264 1770.49 C 916.695 1769.81 910.04 1768.67 903.498 1767.65 C 906.824 1740.04 914.378 1708.61 916.66 1681.35 C 909.101 1679.69 902.634 1679.23 894.921 1678.52 C 896.665 1672.09 898.313 1666.27 900.378 1659.94 z"/>
<path transform="translate(0,0)" fill="rgb(17,62,32)" d="M 958.886 1749.54 C 966.034 1748.2 972.947 1752.8 974.462 1759.92 C 975.978 1767.03 971.544 1774.05 964.471 1775.74 C 959.738 1776.87 954.763 1775.35 951.476 1771.76 C 948.188 1768.18 947.104 1763.09 948.643 1758.47 C 950.183 1753.86 954.103 1750.44 958.886 1749.54 z"/>
</svg>